{"title":"Misti Love - MassageGirls18","uid":11043639,"size":304830701,"categoryP":"porn","categoryS":"movie_clips","magnet":"?xt=urn:btih:078ff5603db2c24304887b1a2cc1ef967b9c38f2&amp;dn=Misti+Love+-+MassageGirls18&amp;tr=udp%3A%2F%2Ftracker.openbittorrent.com%3A80&amp;tr=udp%3A%2F%2Fopen.demonii.com%3A1337&amp;tr=udp%3A%2F%2Ftracker.coppersurfer.tk%3A6969&amp;tr=udp%3A%2F%2Fexodus.desync.com%3A6969","seeders":5,"leechers":1,"uploader":"athklym","files":-1,"time":1410916475,"description":" &lt;a href=&quot;http://bayimg.com/paaBBAaGh&quot; rel=&quot;nofollow&quot; target=&quot;_NEW&quot;&gt;http://bayimg.com/paaBBAaGh&lt;/a&gt;\nMisti_Love_MassageGirls18.wmv\nFormat : Windows Media\nFile size : 291 MiB\nDuration : 25mn 42s\nOverall bit rate mode : Constant\nOverall bit rate : 1 581 Kbps\nMaximum Overall bit rate : 1 589 Kbps\nEncoded date : UTC 2010-01-14 03:36:01.592\nSfOriginalFPS : 300000\n\nVideo\nID : 2\nFormat : VC-1\nFormat profile : MP@HL\nCodec ID : WMV3\nCodec ID/Info : Windows Media Video 9\nCodec ID/Hint : WMV3\nDescription of the codec : Windows Media Video 9 - Professional\nDuration : 25mn 42s\nBit rate mode : Constant\nBit rate : 1 381 Kbps\nWidth : 1 000 pixels\nHeight : 564 pixels\nDisplay aspect ratio : 16:9\nFrame rate : 30.000 fps\nColor space : YUV\nChroma subsampling : 4:2:0\nBit depth : 8 bits\nScan type : Progressive\nCompression mode : Lossy\nBits/(Pixel*Frame) : 0.082\nStream size : 254 MiB (87%)\nLanguage : English (US)\n\nAudio\nID : 1\nFormat : WMA\nFormat version : Version 2\nCodec ID : 161\nCodec ID/Info : Windows Media Audio\nDescription of the codec : Windows Media Audio 9.2 - 192 kbps, 48 kHz, stereo (A/V) 1-pass CBR\nDuration : 25mn 42s\nBit rate mode : Constant\nBit rate : 192 Kbps\nChannel(s) : 2 channels\nSampling rate : 48.0 KHz\nBit depth : 16 bits\nStream size : 35.3 MiB (12%)\nLanguage : English (US)","torrent":{"xt":"urn:btih:078ff5603db2c24304887b1a2cc1ef967b9c38f2","amp;dn":"Misti+Love+-+MassageGirls18","amp;tr":["udp%3A%2F%2Ftracker.openbittorrent.com%3A80","udp%3A%2F%2Fopen.demonii.com%3A1337","udp%3A%2F%2Ftracker.coppersurfer.tk%3A6969","udp%3A%2F%2Fexodus.desync.com%3A6969"],"infoHash":"078ff5603db2c24304887b1a2cc1ef967b9c38f2","infoHashBuffer":{"type":"Buffer","data":[7,143,245,96,61,178,194,67,4,136,123,26,44,193,239,150,123,156,56,242]},"announce":[],"urlList":[]}}